<svg id="e8b94175-72ea-4787-97fd-b85013cd337c" data-name="Layer 1" xmlns="http://www.w3.org/2000/svg" width="30" height="30" viewBox="0 0 30 30"><rect width="30" height="30" fill="#2258c4"/><path d="M16.27,20.67v4.26c0,.14-.07.14-.14.14H12.67c-.14,0-.14-.07-.14-.2V16.4c0-.13,0-.2-.2-.2h-2.2c-.13,0-.13,0-.13-.13V12.6c0-.13.07-.13.13-.13h2.2c.14,0,.14-.07.14-.14V9.4A4.49,4.49,0,0,1,15.93,5a5,5,0,0,1,1-.13h2.94c.13,0,.13.06.13.2V8.53c0,.14-.07.14-.13.14H17.53a1.24,1.24,0,0,0-1.26.86c0,.14-.07.27-.07.4v2.34c0,.13.07.13.13.13H19.8c.13,0,.13,0,.13.13V16c0,.13-.06.13-.13.13H16.33c-.13,0-.13.07-.13.14C16.27,17.87,16.27,19.27,16.27,20.67Z" fill="#fff"/></svg>