<svg id="bdff87e1-599e-4c0c-b64b-3b38485842c8" data-name="Layer 1" xmlns="http://www.w3.org/2000/svg" xmlns:xlink="http://www.w3.org/1999/xlink" width="30" height="30" viewBox="0 0 30 30"><defs><linearGradient id="f81c8909-e074-4ee6-9a32-3ed5c78f635a" y1="17" x2="30" y2="17" gradientTransform="matrix(1, 0, 0, -1, 0, 32)" gradientUnits="userSpaceOnUse"><stop offset="0" stop-color="#fabd54"/><stop offset="0.51" stop-color="#e12548"/><stop offset="1" stop-color="#473ab2"/></linearGradient></defs><rect width="30" height="30" fill="url(#f81c8909-e074-4ee6-9a32-3ed5c78f635a)"/><path d="M25,10.27a6.61,6.61,0,0,0-.13-1.14,5.52,5.52,0,0,0-3.6-3.86A8.22,8.22,0,0,0,20,5H10.07c-.2.07-.4,0-.54.07a5.5,5.5,0,0,0-4,3.33,5.94,5.94,0,0,0-.4,1.53v.27h0v9.87a2.12,2.12,0,0,1,.07.66A5.28,5.28,0,0,0,7,23.67,4.83,4.83,0,0,0,10.33,25h9.6a3.65,3.65,0,0,0,.87-.07,5.43,5.43,0,0,0,2.93-1.73,5.11,5.11,0,0,0,1.34-3.47V10.27Zm-1.87,9.4a3.54,3.54,0,0,1-2,3.13,3.91,3.91,0,0,1-1.8.4h-8.8a3.86,3.86,0,0,1-3.66-2.67,3.52,3.52,0,0,1-.14-1.2V10.6A3.81,3.81,0,0,1,9.4,6.93a3.78,3.78,0,0,1,1.2-.13h8.73A3.72,3.72,0,0,1,23,9.47a3.78,3.78,0,0,1,.13,1.2V15h0C23.2,16.53,23.2,18.13,23.13,19.67Z" fill="#fff"/><path d="M20.33,8.33a1.34,1.34,0,1,0,1.34,1.34A1.34,1.34,0,0,0,20.33,8.33Z" fill="#fff"/><path d="M15,9.87A5.13,5.13,0,1,0,20.13,15h0A5.13,5.13,0,0,0,15,9.87Zm0,8.46A3.33,3.33,0,1,1,18.33,15,3.34,3.34,0,0,1,15,18.33Z" fill="#fff"/></svg>