<svg id="ade6b8c9-83b9-4dec-8a57-f50ab73f2737" data-name="Layer 1" xmlns="http://www.w3.org/2000/svg" width="120" height="74.26" viewBox="0 0 120 74.26"><path d="M28.29,21.72A28.26,28.26,0,0,0,6.77,31.65L6.44,32V29.16a.29.29,0,0,0-.28-.28H.28a.29.29,0,0,0-.28.28V49.58s0,.2,0,.24H6.44A21.85,21.85,0,0,1,50.1,48.65c2.14.35,6.48,1.17,6.48,1.17A28.33,28.33,0,0,0,28.29,21.72Z" fill="#5a7d95"/><path d="M106.46,22.84c0-.23,0-.46,0-.69a2.81,2.81,0,0,0-.1-.71,3.74,3.74,0,0,0-.26-.75,4.71,4.71,0,0,0-.34-.58,2.92,2.92,0,0,0-.56-.64,11.78,11.78,0,0,1-4.5,2.17l-.24.07c-.41.13-.47.3-.47.43a21.85,21.85,0,0,1-43.69,0,.42.42,0,0,0-.42-.42h-5.6a.43.43,0,0,0-.3.13.42.42,0,0,0-.12.3,28.3,28.3,0,0,0,49.8,17.77l.34-.39V46a21.85,21.85,0,0,1-43.11,5s-2.34.47-6.3,1.35a28.29,28.29,0,0,0,55.84-5.89V46h0Z" fill="#5a7d95"/><path d="M89.77,14.63a2.88,2.88,0,0,0-1.33.7,7.58,7.58,0,0,1-4.34,1.5,3.83,3.83,0,0,1-4-3.58c5.78-.47,9.65-3.65,9.65-6.94,0-2.49-1.79-4.22-5.72-4.22-7.69,0-12.2,5-12.2,10.63a8.89,8.89,0,0,0,.52,3.13c-1,0-1.85-.58-1.85-2.08,0-2.32,1.62-5.15,1.62-7.64S70.52,2.2,67.16,2.2c-4.22,0-7.28,3.18-7.74,3.64A4.6,4.6,0,0,0,54.67,2.2c-4.39,0-7.4,3.47-8,4.11a13.57,13.57,0,0,0,.46-2.6c0-1-.7-1.51-2-1.51-3.35,0-6.47.87-6.47,2.14,0,.75.4.87.4,1.85A13.92,13.92,0,0,1,39,7.94c-.37-3.56-3.2-6-7.19-6C23.86,2,19.41,7.58,19.41,13.19a8.29,8.29,0,0,0,.22,2,7.89,7.89,0,0,1-4.5,1.68c-2.43,0-4.63-1.56-4.63-5,0-4.11,2.49-7.17,4.17-7.17.69,0,1,.29,1,.75-.06.69-.93,1.21-.93,2.49s1,1.9,2.31,1.9a3.37,3.37,0,0,0,3.42-3.7c0-2.19-1.62-4-6-4C7,2.09,2.41,7,2.41,13c0,4.86,3.87,7.69,9.25,7.69a12.55,12.55,0,0,0,8.8-3.48c1.36,2.24,3.95,3.54,7.33,3.54a10.56,10.56,0,0,0,9.62-5.51,24.22,24.22,0,0,0-.72,4c0,1,.47,1.27,1.22,1.27s3.12-.29,4.85-.29C43.63,20.24,44,20,44,19a26.14,26.14,0,0,1,2.48-9.14c1.39-2.43,3-3.52,4-3.52.87,0,1.27.69,1.27,1.73,0,2.43-2.14,7.75-2.14,11.16,0,1,.46,1.27,1.16,1.27,1,0,3.24-.29,5-.29.87,0,1.21-.23,1.21-1.21A24.75,24.75,0,0,1,59.65,9.6c1.15-2.25,2.42-3.23,3.52-3.23.87,0,1.39.52,1.39,1.61,0,2.26-1.85,4.57-1.85,8.1,0,2.43,2,4.45,5.32,4.45a8.88,8.88,0,0,0,5.84-2.25c1.69,1.66,4.29,2.42,7.34,2.42a11,11,0,0,0,8-3.41c.92-.92,1.27-1.39,1.27-2A.72.72,0,0,0,89.77,14.63ZM84.1,4.57A1.21,1.21,0,0,1,85.49,5.9c0,1.39-2.14,4.28-5.43,4.92C80.06,7.41,82.37,4.57,84.1,4.57Zm-53.19,12c-2.25,0-3.76-1.68-3.76-4.28A8.15,8.15,0,0,1,30,5.67a3.23,3.23,0,0,1,1.62-.81c.34,0,.52.18.52.46s-.87.81-.87,2.26c0,1,.52,1.68,2.31,2.37a2.22,2.22,0,0,1,1.16,2.2C34.73,14.17,33.23,16.54,30.91,16.54Z" fill="#5a7d95"/><path d="M114.13,5c-6.43,0-10,4.56-10,9.11a6.71,6.71,0,0,0,.3,2,2,2,0,0,1-.63.12c-1.13,0-1.83-.52-1.83-1.93a23.8,23.8,0,0,1,1-5.3,1.75,1.75,0,0,1,2-1.5c.57,0,1.08-.66,1.08-1.6,0-.37-.28-.52-.65-.52-1.41,0-1.6-.32-1.6-.93,0-.8.66-2.73.66-3.76a.72.72,0,0,0-.75-.75c-.43,0-.8.28-1.27,1-1.22,2-3.52,4.41-6,4.41-.52,0-.8.9-.8,1.37,0,.84,1.27.47,1.27,1.08,0,2.34-1.45,4.69-1.45,7.69,0,2.49,1.45,4.51,4.83,4.51A8.81,8.81,0,0,0,105.32,18a6.84,6.84,0,0,0,5.57,2.33c5.78,0,9.11-4.51,9.11-9.77C120,7.28,117.61,5,114.13,5Zm-.7,11.83c-1.83,0-3.05-1.36-3.05-3.47A6.59,6.59,0,0,1,112.68,8,2.54,2.54,0,0,1,114,7.37c.28,0,.42.14.42.37s-.7.66-.7,1.84c0,.84.42,1.36,1.88,1.92a1.81,1.81,0,0,1,.94,1.78C116.53,14.93,115.31,16.85,113.43,16.85Z" fill="#5a7d95"/></svg>