<svg id="b57ff7e4-f728-408a-be9d-f69e53845752" data-name="Layer 1" xmlns="http://www.w3.org/2000/svg" width="150" height="92.82" viewBox="0 0 150 92.82"><path d="M35.36,27.15A35.31,35.31,0,0,0,8.47,39.56l-.42.49V36.46a.36.36,0,0,0-.35-.36H.35a.36.36,0,0,0-.35.36V62s0,.24,0,.3H8.05a27.31,27.31,0,0,1,54.57-1.47c2.68.44,8.1,1.47,8.1,1.47A35.41,35.41,0,0,0,35.36,27.15Z" fill="#f04e23"/><path d="M133.08,28.55l0-.86a3,3,0,0,0-.12-.89,4.64,4.64,0,0,0-.33-.94,6.28,6.28,0,0,0-.42-.72,3.61,3.61,0,0,0-.7-.81,14.65,14.65,0,0,1-5.63,2.72l-.29.09c-.52.16-.59.37-.6.53a27.31,27.31,0,0,1-54.6,0,.53.53,0,0,0-.53-.52h-7a.55.55,0,0,0-.38.16.5.5,0,0,0-.14.37A35.37,35.37,0,0,0,124.61,49.9l.42-.49v8.06a27.31,27.31,0,0,1-53.88,6.29s-2.93.58-7.88,1.69a35.36,35.36,0,0,0,69.8-7.37V57.5h0Z" fill="#f04e23"/><path d="M112.21,18.29a3.61,3.61,0,0,0-1.66.87A9.43,9.43,0,0,1,105.13,21c-2.75,0-5.06-1.95-5.06-4.48C107.3,16,112.14,12,112.14,7.88c0-3.1-2.24-5.27-7.16-5.27-9.61,0-15.24,6.29-15.24,13.3a11.15,11.15,0,0,0,.64,3.9c-1.3,0-2.31-.73-2.31-2.6,0-2.89,2-6.44,2-9.54s-2-4.92-6.15-4.92c-5.27,0-9.1,4-9.68,4.56a5.73,5.73,0,0,0-5.93-4.56c-5.49,0-9.25,4.34-10,5.13A16.67,16.67,0,0,0,59,4.63c0-1.23-.87-1.88-2.46-1.88-4.19,0-8.09,1.09-8.09,2.68,0,.94.5,1.08.5,2.31a15.94,15.94,0,0,1-.19,2.18c-.46-4.44-4-7.46-9-7.46-9.9,0-15.46,7-15.46,14a10.63,10.63,0,0,0,.27,2.45A9.77,9.77,0,0,1,18.91,21c-3,0-5.78-1.95-5.78-6.22,0-5.13,3.11-9,5.2-9,.87,0,1.3.36,1.3.94-.07.87-1.15,1.52-1.15,3.11,0,1.44,1.23,2.38,2.89,2.38,2.38,0,4.26-1.66,4.26-4.62,0-2.75-2-5.06-7.51-5.06C8.79,2.61,3,8.75,3,16.27c0,6.07,4.84,9.61,11.56,9.61a15.71,15.71,0,0,0,11-4.35C27.27,24.32,30.51,26,34.74,26a13.2,13.2,0,0,0,12-6.89,29.88,29.88,0,0,0-.89,5c0,1.23.58,1.59,1.51,1.59,1.09,0,3.91-.36,6.08-.36,1.08,0,1.59-.29,1.59-1.52a32.8,32.8,0,0,1,3.1-11.42c1.74-3,3.76-4.4,5.06-4.4,1.09,0,1.59.86,1.59,2.16,0,3-2.67,9.69-2.67,14,0,1.23.58,1.59,1.44,1.59,1.23,0,4.05-.36,6.29-.36,1.08,0,1.52-.29,1.52-1.52A31,31,0,0,1,74.56,12C76,9.18,77.59,8,79,8c1.08,0,1.73.65,1.73,2,0,2.82-2.31,5.71-2.31,10.12,0,3,2.53,5.56,6.65,5.56a11.13,11.13,0,0,0,7.3-2.81c2.11,2.07,5.36,3,9.17,3a13.76,13.76,0,0,0,10-4.26c1.16-1.16,1.59-1.74,1.59-2.46A.89.89,0,0,0,112.21,18.29ZM105.13,5.72a1.51,1.51,0,0,1,1.73,1.66c0,1.73-2.67,5.35-6.79,6.14C100.07,9.26,103,5.72,105.13,5.72Zm-66.49,15c-2.82,0-4.7-2.1-4.7-5.35a10.2,10.2,0,0,1,3.54-8.24,4,4,0,0,1,2-1c.43,0,.65.21.65.58s-1.09,1-1.09,2.81c0,1.3.65,2.1,2.89,3a2.74,2.74,0,0,1,1.45,2.74C43.41,17.71,41.53,20.68,38.64,20.68Z" fill="#f47920"/><path d="M142.67,6.28c-8,0-12.56,5.69-12.56,11.38a8.63,8.63,0,0,0,.37,2.55,2.4,2.4,0,0,1-.78.15c-1.41,0-2.29-.65-2.29-2.41a30.27,30.27,0,0,1,1.23-6.63,2.21,2.21,0,0,1,2.53-1.87c.7,0,1.35-.83,1.35-2,0-.47-.36-.64-.82-.64-1.76,0-2-.41-2-1.18,0-1,.82-3.4.82-4.69a.89.89,0,0,0-.94-.94c-.53,0-1,.35-1.58,1.29-1.53,2.47-4.4,5.52-7.51,5.52-.65,0-1,1.11-1,1.7,0,1.05,1.59.58,1.59,1.35,0,2.93-1.82,5.86-1.82,9.62,0,3.11,1.82,5.63,6,5.63a11,11,0,0,0,6.35-2.68,8.56,8.56,0,0,0,7,2.92c7.21,0,11.38-5.64,11.38-12.21C150,9.09,147,6.28,142.67,6.28Zm-.88,14.78c-2.29,0-3.82-1.7-3.82-4.34A8.28,8.28,0,0,1,140.85,10a3.3,3.3,0,0,1,1.64-.82c.35,0,.53.18.53.47s-.88.82-.88,2.29c0,1.06.53,1.7,2.34,2.4a2.25,2.25,0,0,1,1.18,2.23C145.66,18.66,144.13,21.06,141.79,21.06Z" fill="#ee3124"/></svg>